<svg width="18" height="18" viewBox="0 0 18 18" fill="none" xmlns="http://www.w3.org/2000/svg">
<path fill-rule="evenodd" clip-rule="evenodd" d="M5.4975 1.50024H12.5017C15.0525 1.50024 16.4925 2.94699 16.5 5.49774V12.5027C16.5 15.0527 15.0525 16.5002 12.5017 16.5002H5.4975C2.94675 16.5002 1.5 15.0527 1.5 12.5027V5.49774C1.5 2.94699 2.94675 1.50024 5.4975 1.50024ZM9.03675 13.3952C9.36 13.3952 9.62925 13.1552 9.65925 12.8327V5.19024C9.68925 4.95774 9.5775 4.72449 9.375 4.59774C9.16425 4.47024 8.90925 4.47024 8.7075 4.59774C8.50425 4.72449 8.3925 4.95774 8.41425 5.19024V12.8327C8.4525 13.1552 8.72175 13.3952 9.03675 13.3952ZM12.4875 13.3952C12.8025 13.3952 13.0717 13.1552 13.11 12.8327V10.3727C13.1318 10.132 13.02 9.90774 12.8167 9.78024C12.615 9.65274 12.36 9.65274 12.15 9.78024C11.9467 9.90774 11.835 10.132 11.865 10.3727V12.8327C11.895 13.1552 12.1642 13.3952 12.4875 13.3952ZM6.16425 12.8327C6.13425 13.1552 5.865 13.3952 5.54175 13.3952C5.21925 13.3952 4.94925 13.1552 4.92 12.8327V7.65024C4.8975 7.41699 5.00925 7.18524 5.2125 7.05774C5.41425 6.93024 5.67 6.93024 5.8725 7.05774C6.07425 7.18524 6.1875 7.41699 6.16425 7.65024V12.8327Z" fill="#5F81FF"/>
</svg>
