<svg width="28" height="28" viewBox="0 0 28 28" fill="none" xmlns="http://www.w3.org/2000/svg">
<path fill-rule="evenodd" clip-rule="evenodd" d="M2.33301 14.0176C2.33301 7.87168 7.24467 2.33337 14.023 2.33337C20.6497 2.33337 25.6663 7.76652 25.6663 13.9825C25.6663 21.1917 19.7863 25.6667 13.9997 25.6667C12.0863 25.6667 9.96301 25.1526 8.25967 24.1478C7.66467 23.7856 7.16301 23.5168 6.52134 23.7271L4.16467 24.4282C3.56967 24.6151 3.03301 24.1478 3.20801 23.5168L3.98967 20.8996C4.11801 20.5373 4.09467 20.1518 3.90801 19.848C2.90467 18.0019 2.33301 15.9805 2.33301 14.0176ZM12.483 14.0176C12.483 14.8471 13.148 15.5131 13.9763 15.5248C14.8047 15.5248 15.4697 14.8471 15.4697 14.0293C15.4697 13.1997 14.8047 12.5337 13.9763 12.5337C13.1597 12.522 12.483 13.1997 12.483 14.0176ZM17.8613 14.0293C17.8613 14.8471 18.5263 15.5248 19.3547 15.5248C20.183 15.5248 20.848 14.8471 20.848 14.0293C20.848 13.1997 20.183 12.5337 19.3547 12.5337C18.5263 12.5337 17.8613 13.1997 17.8613 14.0293ZM8.59801 15.5248C7.78134 15.5248 7.10467 14.8471 7.10467 14.0293C7.10467 13.1997 7.76967 12.5337 8.59801 12.5337C9.42634 12.5337 10.0913 13.1997 10.0913 14.0293C10.0913 14.8471 9.42634 15.5131 8.59801 15.5248Z" fill="#9FB7FF"/>
</svg>
