<svg width="16" height="16" viewBox="0 0 16 16" fill="none" xmlns="http://www.w3.org/2000/svg">
<path fill-rule="evenodd" clip-rule="evenodd" d="M9.65118 2.96139L14.497 11.3715C14.6037 11.6225 14.6503 11.8266 14.6637 12.0387C14.6903 12.5341 14.517 13.0157 14.1771 13.3863C13.8371 13.7556 13.3772 13.9736 12.8773 14H3.11894C2.91231 13.9874 2.70568 13.9405 2.51238 13.8679C1.54588 13.4781 1.07929 12.3815 1.47255 11.4309L6.35173 2.95545C6.51837 2.65752 6.77166 2.40055 7.08494 2.2354C7.99146 1.73268 9.1446 2.06298 9.65118 2.96139ZM8.57802 8.50382C8.57802 8.82091 8.31807 9.08581 7.99812 9.08581C7.67817 9.08581 7.41155 8.82091 7.41155 8.50382V6.63498C7.41155 6.31724 7.67817 6.06026 7.99812 6.06026C8.31807 6.06026 8.57802 6.31724 8.57802 6.63498V8.50382ZM7.99812 11.3451C7.67817 11.3451 7.41155 11.0802 7.41155 10.7637C7.41155 10.446 7.67817 10.1817 7.99812 10.1817C8.31807 10.1817 8.57802 10.44 8.57802 10.7565C8.57802 11.0802 8.31807 11.3451 7.99812 11.3451Z" fill="#9FB7FF"/>
</svg>
