<svg width="16" height="16" viewBox="0 0 16 16" fill="none" xmlns="http://www.w3.org/2000/svg">
<path fill-rule="evenodd" clip-rule="evenodd" d="M5.11301 1.33276H10.893C13.153 1.33276 14.6663 2.91943 14.6663 5.27943V10.7268C14.6663 13.0801 13.153 14.6661 10.893 14.6661H5.11301C2.85301 14.6661 1.33301 13.0801 1.33301 10.7268V5.27943C1.33301 2.91943 2.85301 1.33276 5.11301 1.33276ZM7.99301 6.0401C7.67967 6.0401 7.41967 5.77943 7.41967 5.4601C7.41967 5.13343 7.67967 4.87343 8.00634 4.87343C8.32634 4.87343 8.58634 5.13343 8.58634 5.4601C8.58634 5.77943 8.32634 6.0401 7.99301 6.0401ZM8.57967 10.5201C8.57967 10.8401 8.31967 11.1001 7.99301 11.1001C7.67301 11.1001 7.41301 10.8401 7.41301 10.5201V7.57343C7.41301 7.25276 7.67301 6.98676 7.99301 6.98676C8.31967 6.98676 8.57967 7.25276 8.57967 7.57343V10.5201Z" fill="#57606A"/>
</svg>
