<svg width="18" height="18" viewBox="0 0 18 18" fill="none" xmlns="http://www.w3.org/2000/svg">
<path fill-rule="evenodd" clip-rule="evenodd" d="M12.8851 3.3075C12.8851 2.31 13.6951 1.5 14.6926 1.5C15.6901 1.5 16.5001 2.31 16.5001 3.3075C16.5001 4.305 15.6901 5.115 14.6926 5.115C13.6951 5.115 12.8851 4.305 12.8851 3.3075ZM9.9975 11.0695L12.165 8.27273L12.135 8.28772C12.255 8.12273 12.2775 7.91272 12.195 7.72522C12.1132 7.53772 11.9325 7.41022 11.7382 7.39523C11.535 7.37273 11.3333 7.46272 11.2125 7.62772L9.39825 9.97523L7.32 8.34022C7.1925 8.24272 7.0425 8.20447 6.8925 8.22022C6.74325 8.24272 6.60825 8.32447 6.5175 8.44448L4.29825 11.3327L4.2525 11.4002C4.125 11.6395 4.185 11.947 4.41 12.1127C4.515 12.1802 4.6275 12.2252 4.755 12.2252C4.92825 12.2327 5.0925 12.142 5.1975 12.0002L7.08 9.57697L9.2175 11.1827L9.285 11.227C9.525 11.3545 9.825 11.2952 9.9975 11.0695ZM11.5875 2.83523C11.5575 3.02273 11.5425 3.21023 11.5425 3.39773C11.5425 5.08523 12.9075 6.44947 14.5875 6.44947C14.775 6.44947 14.955 6.42773 15.1425 6.39773V12.4495C15.1425 14.9927 13.6425 16.5002 11.0925 16.5002H5.55075C3 16.5002 1.5 14.9927 1.5 12.4495V6.90023C1.5 4.35022 3 2.83523 5.55075 2.83523H11.5875Z" fill="#5F81FF"/>
</svg>
